# xmcd CD database file
#
# Track frame offsets:
#	150
#	7936
#	21386
#	31498
#	50091
#	70176
#	86854
#	108064
#	129790
#	140901
#	159578
#	180259
#	193999
#	211522
#	230395
#	246981
#	261835
#	291440
#	310125
#
# Disc length: 4343 seconds
#
# Revision: 1
# Processed by: cddbd v1.5.2PL0 Copyright (c) Steve Scherf et al.
# Submitted via: CDex 1.51
#
DISCID=0d10f513
DTITLE=Erik the Flutemaker - Perfectly Mellow
DYEAR=2002
DGENRE=New Age
TTITLE0=A Place Called Peace
TTITLE1=Forest of Dreams
TTITLE2=Mountain Song
TTITLE3=In His Presence
TTITLE4=Spirit of Grace
TTITLE5=Misty Morn
TTITLE6=Pandas Dream
TTITLE7=Underneath the Bamboo Tree
TTITLE8=Echo Canyon
TTITLE9=Courts of the King
TTITLE10=The Trail
TTITLE11=By the Waterfall
TTITLE12=In the Breeze
TTITLE13=Desert Prayer
TTITLE14=Bethlehem Babe
TTITLE15=The Highland Storm
TTITLE16=After the Storm
TTITLE17=Into the Valley
TTITLE18=Amazing Grace
EXTD=YEAR: 2002
EXTT0=
EXTT1=
EXTT2=
EXTT3=
EXTT4=
EXTT5=
EXTT6=
EXTT7=
EXTT8=
EXTT9=
EXTT10=
EXTT11=
EXTT12=
EXTT13=
EXTT14=
EXTT15=
EXTT16=
EXTT17=
EXTT18=
PLAYORDER=
